<svg width="1280" height="760" viewBox="0 0 1280 760" fill="none" xmlns="http://www.w3.org/2000/svg">
  <defs>
    <linearGradient id="bg" x1="120" y1="80" x2="1120" y2="700" gradientUnits="userSpaceOnUse">
      <stop stop-color="#EEF4FF"/>
      <stop offset="1" stop-color="#F8FAFC"/>
    </linearGradient>
    <linearGradient id="panel" x1="300" y1="160" x2="980" y2="620" gradientUnits="userSpaceOnUse">
      <stop stop-color="#FFFFFF"/>
      <stop offset="1" stop-color="#F8FBFF"/>
    </linearGradient>
    <linearGradient id="accent" x1="220" y1="220" x2="1060" y2="560" gradientUnits="userSpaceOnUse">
      <stop stop-color="#2563EB"/>
      <stop offset="1" stop-color="#0EA5E9"/>
    </linearGradient>
    <filter id="shadow" x="120" y="100" width="1040" height="600" filterUnits="userSpaceOnUse" color-interpolation-filters="sRGB">
      <feFlood flood-opacity="0" result="BackgroundImageFix"/>
      <feColorMatrix in="SourceAlpha" type="matrix" values="0 0 0 0 0 0 0 0 0 0 0 0 0 0 0 0 0 0 127 0" result="hardAlpha"/>
      <feOffset dy="18"/>
      <feGaussianBlur stdDeviation="24"/>
      <feColorMatrix type="matrix" values="0 0 0 0 0.0588235 0 0 0 0 0.0941176 0 0 0 0 0.168627 0 0 0 0.14 0"/>
      <feBlend mode="normal" in2="BackgroundImageFix" result="effect1_dropShadow_hero"/>
      <feBlend mode="normal" in="SourceGraphic" in2="effect1_dropShadow_hero" result="shape"/>
    </filter>
    <marker id="arrow" markerWidth="10" markerHeight="10" refX="8" refY="5" orient="auto">
      <path d="M0 0L10 5L0 10V0Z" fill="#3B82F6"/>
    </marker>
  </defs>

  <rect width="1280" height="760" fill="url(#bg)"/>
  <circle cx="190" cy="130" r="120" fill="#93C5FD" fill-opacity="0.18"/>
  <circle cx="1120" cy="620" r="140" fill="#60A5FA" fill-opacity="0.16"/>

  <g filter="url(#shadow)">
    <rect x="170" y="130" width="940" height="500" rx="32" fill="url(#panel)" stroke="#DBE7FF"/>
  </g>

  <rect x="230" y="190" width="250" height="110" rx="18" fill="#FFFFFF" stroke="#D6E4FF"/>
  <rect x="230" y="350" width="250" height="110" rx="18" fill="#FFFFFF" stroke="#D6E4FF"/>
  <rect x="230" y="510" width="250" height="70" rx="14" fill="#EFF6FF" stroke="#D6E4FF"/>

  <rect x="520" y="190" width="240" height="110" rx="18" fill="#FFFFFF" stroke="#D6E4FF"/>
  <rect x="520" y="350" width="240" height="110" rx="18" fill="#FFFFFF" stroke="#D6E4FF"/>
  <rect x="520" y="510" width="240" height="70" rx="14" fill="#EFF6FF" stroke="#D6E4FF"/>

  <rect x="800" y="190" width="240" height="110" rx="18" fill="#FFFFFF" stroke="#D6E4FF"/>
  <rect x="800" y="350" width="240" height="110" rx="18" fill="#FFFFFF" stroke="#D6E4FF"/>
  <rect x="800" y="510" width="240" height="70" rx="14" fill="#EFF6FF" stroke="#D6E4FF"/>

  <text x="252" y="236" fill="#0F172A" font-family="Inter, Arial, sans-serif" font-size="24" font-weight="700">Lead Capture</text>
  <text x="252" y="270" fill="#475569" font-family="Inter, Arial, sans-serif" font-size="16">Contacts + Companies</text>

  <text x="252" y="396" fill="#0F172A" font-family="Inter, Arial, sans-serif" font-size="24" font-weight="700">Pipeline</text>
  <text x="252" y="430" fill="#475569" font-family="Inter, Arial, sans-serif" font-size="16">Stages + Owners</text>

  <text x="252" y="553" fill="#1D4ED8" font-family="Inter, Arial, sans-serif" font-size="16" font-weight="600">Quality Check</text>

  <text x="542" y="236" fill="#0F172A" font-family="Inter, Arial, sans-serif" font-size="24" font-weight="700">Execution</text>
  <text x="542" y="270" fill="#475569" font-family="Inter, Arial, sans-serif" font-size="16">Tasks + Visits</text>

  <text x="542" y="396" fill="#0F172A" font-family="Inter, Arial, sans-serif" font-size="24" font-weight="700">Automation</text>
  <text x="542" y="430" fill="#475569" font-family="Inter, Arial, sans-serif" font-size="16">Reminders + Alerts</text>

  <text x="542" y="553" fill="#1D4ED8" font-family="Inter, Arial, sans-serif" font-size="16" font-weight="600">AI Suggestions</text>

  <text x="822" y="236" fill="#0F172A" font-family="Inter, Arial, sans-serif" font-size="24" font-weight="700">Revenue</text>
  <text x="822" y="270" fill="#475569" font-family="Inter, Arial, sans-serif" font-size="16">Invoices + Follow-up</text>

  <text x="822" y="396" fill="#0F172A" font-family="Inter, Arial, sans-serif" font-size="24" font-weight="700">Insights</text>
  <text x="822" y="430" fill="#475569" font-family="Inter, Arial, sans-serif" font-size="16">Reports + Forecasts</text>

  <text x="822" y="553" fill="#1D4ED8" font-family="Inter, Arial, sans-serif" font-size="16" font-weight="600">Shared Workspace</text>

  <path d="M480 245H516" stroke="#3B82F6" stroke-width="4" stroke-linecap="round" marker-end="url(#arrow)"/>
  <path d="M760 245H796" stroke="#3B82F6" stroke-width="4" stroke-linecap="round" marker-end="url(#arrow)"/>
  <path d="M480 405H516" stroke="#3B82F6" stroke-width="4" stroke-linecap="round" marker-end="url(#arrow)"/>
  <path d="M760 405H796" stroke="#3B82F6" stroke-width="4" stroke-linecap="round" marker-end="url(#arrow)"/>

  <path d="M355 300V340" stroke="#93C5FD" stroke-width="3" stroke-linecap="round"/>
  <path d="M640 300V340" stroke="#93C5FD" stroke-width="3" stroke-linecap="round"/>
  <path d="M920 300V340" stroke="#93C5FD" stroke-width="3" stroke-linecap="round"/>

  <path d="M355 462V500" stroke="#93C5FD" stroke-width="3" stroke-linecap="round"/>
  <path d="M640 462V500" stroke="#93C5FD" stroke-width="3" stroke-linecap="round"/>
  <path d="M920 462V500" stroke="#93C5FD" stroke-width="3" stroke-linecap="round"/>

  <rect x="360" y="80" width="560" height="56" rx="16" fill="url(#accent)"/>
  <text x="640" y="116" text-anchor="middle" fill="#FFFFFF" font-family="Inter, Arial, sans-serif" font-size="24" font-weight="700">
    Que CRM Workflow Diagram
  </text>
</svg>
